<?xml version="1.0" encoding="UTF-8"?>
<!DOCTYPE svg PUBLIC "-//W3C//DTD SVG 1.1//EN" "http://www.w3.org/Graphics/SVG/1.1/DTD/svg11.dtd">
<!-- Creator: CorelDRAW X6 -->
<svg xmlns="http://www.w3.org/2000/svg" xml:space="preserve" width="242px" height="62px" version="1.1" style="shape-rendering:geometricPrecision; text-rendering:geometricPrecision; image-rendering:optimizeQuality; fill-rule:evenodd; clip-rule:evenodd"
viewBox="0 0  51690 13088"
 xmlns:xlink="http://www.w3.org/1999/xlink">
 <defs>
  <style type="text/css">
   <![CDATA[
    .fil7 {fill:none}
    .fil1 {fill:#737273}
    .fil3 {fill:#737373}
    .fil5 {fill:#747373}
    .fil4 {fill:#757474}
    .fil0 {fill:#898989}
    .fil11 {fill:#8C8C8C}
    .fil9 {fill:#909090}
    .fil10 {fill:#919192}
    .fil6 {fill:#969696}
    .fil12 {fill:#99999A}
    .fil8 {fill:#A6A6A7}
    .fil2 {fill:#EA5616}
   ]]>
  </style>
 </defs>
 <g id="图层_x0020_1">
  <metadata id="CorelCorpID_0Corel-Layer"/>
  <path class="fil0" d="M25829 13087c-8338,0 -16675,0 -25013,0 -60,0 -120,1 -180,-1 -339,-8 -623,-297 -634,-624 -1,-15 -1,-30 -1,-45 0,-603 0,-1206 0,-1809 0,-68 6,-134 26,-200 100,-329 402,-482 627,-475 45,1 90,0 135,0 16705,0 33410,0 50115,0 45,0 90,1 135,0 269,-4 586,209 638,558 8,52 13,104 13,156 1,577 1,1154 0,1730 0,106 -12,210 -58,307 -120,252 -318,390 -599,401 -56,2 -112,1 -169,1 -8345,0 -16690,0 -25035,0zm-14573 -1848c75,-19 149,-38 213,-80 -25,-121 -86,-249 -164,-346 -72,16 -146,31 -207,69 45,114 86,221 129,328 5,12 19,20 29,31 -14,46 -68,25 -96,59 -3,57 -6,119 -9,187 -169,14 -333,-5 -502,12 -7,89 -17,172 8,260 46,0 87,0 128,0 45,0 90,-1 135,0 39,1 80,-6 129,10 -18,30 -28,53 -43,72 -109,144 -233,273 -381,379 -20,14 -38,32 -56,48 59,86 113,165 172,251 39,-32 74,-59 107,-89 36,-33 71,-67 105,-102 31,-32 61,-66 92,-99 32,-33 54,-78 109,-113 3,100 0,184 2,269 2,89 -10,178 11,272 48,1 92,3 137,2 44,-1 89,7 135,-11 1,-41 4,-77 4,-114 0,-157 0,-315 1,-472 0,-17 -6,-38 26,-48 41,44 85,89 127,137 43,51 83,105 127,160 72,-55 129,-119 191,-187 -20,-28 -39,-55 -59,-81 -18,-24 -38,-46 -58,-69 -23,-25 -47,-49 -70,-73 -21,-21 -44,-41 -65,-62 -22,-23 -54,-37 -70,-80 58,0 106,1 153,0 48,-1 96,8 146,-10 11,-66 4,-129 5,-192 0,-18 -4,-35 -7,-58 -149,-16 -294,6 -442,-14 -3,-68 -6,-130 -9,-197 -30,-3 -55,-7 -81,-9 -26,-2 -52,-2 -78,-5 -16,-2 -24,-16 -24,-32zm9921 -291c1,-13 1,-26 1,-39 124,-1 247,-1 371,-3 25,0 49,-6 76,-10 1,-91 13,-175 -9,-263 -262,-5 -520,2 -776,-4 -54,-92 -92,-187 -167,-262 -95,23 -188,47 -283,70 15,73 79,118 81,195 -95,0 -184,0 -273,0 -94,0 -187,-1 -281,0 -89,2 -178,-8 -268,7 -17,51 -9,100 -10,148 -1,37 2,74 4,113 29,3 51,6 72,7 26,1 52,0 79,0 22,0 45,0 67,0 26,0 52,0 79,0 22,0 45,0 67,0 26,0 53,-2 79,1 19,2 43,-11 60,13 -38,43 -106,38 -141,88 42,72 83,143 123,215 10,18 12,40 19,68 -41,2 -74,4 -108,4 -105,1 -210,-1 -315,1 -21,0 -41,9 -67,16 0,42 0,79 0,116 -1,127 0,255 -4,382 -7,232 -54,453 -184,651 -4,6 -4,14 -8,27 37,32 75,67 117,98 41,30 69,78 122,97 86,-103 135,-220 173,-342 64,-205 91,-416 94,-631 0,-40 -7,-82 13,-127 113,-5 225,-2 337,-2 112,-1 225,0 337,0 116,0 232,0 348,0 112,0 225,1 337,0 111,-1 223,6 338,-6 9,-94 15,-181 -4,-276 -163,-9 -323,3 -494,-8 13,-26 20,-42 30,-56 38,-56 78,-110 116,-166 12,-17 19,-37 30,-59 -64,-22 -120,-42 -177,-61zm25787 989c-3,-25 -8,-43 -8,-61 0,-363 0,-727 0,-1090 0,-18 7,-35 10,-50 30,-8 53,-15 78,-22 -3,-84 14,-162 -11,-237 -150,-14 -856,-10 -942,7 -4,75 -8,152 3,233 34,8 65,15 94,21 3,18 6,29 6,40 0,408 1,816 0,1225 0,18 -6,35 -8,52 -44,12 -82,22 -123,32 22,90 25,176 63,257 23,-2 41,-2 59,-5 144,-26 287,-52 431,-78 28,-5 57,-16 90,3 7,130 -4,260 7,392 82,17 159,16 239,3 3,-50 6,-97 10,-154 94,44 146,125 223,184 51,-38 101,-71 146,-109 46,-38 90,-79 131,-123 43,-47 83,-97 120,-148 35,-48 64,-100 101,-157 27,41 49,75 71,108 99,154 224,281 383,372 18,11 40,17 59,24 63,-81 123,-156 182,-232 -6,-6 -9,-9 -12,-11 -9,-6 -18,-13 -28,-18 -253,-123 -413,-327 -513,-584 -6,-15 -5,-33 -9,-57 94,0 180,2 266,0 88,-2 178,11 272,-12 0,-45 1,-86 0,-127 -1,-40 6,-81 -10,-125 -36,-1 -69,-4 -102,-4 -116,0 -232,0 -348,-1 -21,0 -42,-7 -70,-13 0,-56 -1,-108 0,-160 1,-51 -7,-103 9,-159 33,-2 62,-5 91,-5 97,-1 195,0 292,-1 21,0 42,-7 64,-12 3,-86 12,-167 -7,-252 -86,-2 -166,-4 -245,-6 -7,-37 13,-56 26,-78 45,-82 91,-164 135,-246 10,-18 13,-39 20,-63 -51,-13 -94,-27 -137,-36 -47,-10 -91,-35 -150,-21 -62,147 -122,301 -212,445 -70,0 -141,0 -211,-1 -4,0 -8,-9 -16,-18 50,-30 99,-60 147,-89 -56,-136 -157,-278 -252,-351 -51,24 -106,49 -159,76 -18,9 -33,24 -52,38 25,36 48,66 68,98 38,60 76,120 111,182 10,17 10,40 14,60 -83,20 -163,-8 -243,21 -1,42 -3,83 -3,124 1,40 -6,81 11,127 46,1 90,3 134,3 41,1 82,-1 124,0 44,2 89,-8 129,9 17,144 14,256 -12,329 -69,0 -139,-1 -210,0 -70,1 -141,-5 -217,6 -2,90 -15,174 10,258 139,12 273,-5 406,11 -33,288 -274,610 -527,704 -1,-42 -3,-82 -4,-121 0,-44 1,-89 1,-125 59,-50 136,-17 185,-69 -3,-60 -6,-119 -11,-179 -1,-17 -9,-33 -15,-52 -54,7 -101,12 -152,19zm-9653 -1454c0,47 -1,87 0,128 2,44 -7,89 11,135 36,2 69,4 102,4 112,1 225,0 337,1 21,0 42,6 71,10 -22,143 -50,278 -79,412 -29,139 -62,277 -95,416 -32,134 -66,267 -100,403 43,18 80,12 117,12 292,0 584,0 876,1 28,0 56,5 84,8 -5,129 -23,224 -58,307 -109,0 -221,0 -333,0 -109,0 -217,0 -326,0 -112,0 -225,-1 -337,0 -111,2 -223,-8 -343,8 2,94 -19,186 14,280 87,0 169,0 251,0 614,0 1228,0 1842,-1 40,0 82,11 127,-17 1,-41 2,-86 1,-130 -1,-44 6,-89 -10,-138 -93,-5 -182,-1 -271,-3 -93,-3 -186,8 -281,-8 0,-22 -2,-41 0,-58 33,-218 68,-436 99,-655 21,-144 37,-289 54,-434 3,-24 -3,-49 -5,-73 -107,-22 -205,-25 -307,-21 -194,8 -389,3 -584,2 -21,0 -42,-7 -69,-11 9,-57 13,-109 27,-159 13,-49 7,-105 48,-151 40,0 81,0 122,0 330,0 659,0 989,0 36,0 74,9 114,-15 1,-40 4,-80 3,-121 -1,-44 6,-89 -7,-130 -92,-14 -1951,-17 -2084,-2zm-6733 1775c-48,0 -85,0 -122,0 -142,0 -285,0 -427,0 -25,0 -50,-5 -73,-8 -18,-125 -16,-347 5,-430 74,10 130,70 208,82 15,-23 31,-44 43,-66 126,-243 233,-494 328,-750 7,-20 7,-42 10,-65 -45,-23 -84,-44 -125,-62 -40,-17 -76,-46 -127,-50 -14,38 -27,73 -39,107 -75,224 -165,442 -270,653 -9,18 -12,45 -46,40 0,-412 0,-824 0,-1236 0,-11 -1,-22 -2,-34 0,-4 -1,-8 -2,-11 -2,-3 -5,-6 -7,-8 -114,-20 -213,-17 -288,8 0,36 0,73 0,110 0,139 0,277 0,416 0,397 0,794 -1,1191 0,36 12,75 -23,113 -94,-4 -194,12 -299,-10 -1,-45 -4,-85 -4,-126 0,-528 0,-1056 0,-1584 0,-40 5,-81 -10,-127 -95,-4 -187,-5 -286,1 -8,81 -4,155 -4,229 -1,79 0,157 0,236 0,75 0,150 0,225 0,75 0,150 0,225 0,79 0,157 0,236 0,75 -1,150 -1,225 0,79 1,157 1,236 -1,74 4,148 -4,229 -72,13 -139,6 -205,7 -71,1 -142,-1 -213,1 -67,1 -134,-6 -198,5 -22,84 -23,183 -3,283 12,2 26,7 41,7 708,-1 1415,-2 2123,-4 6,0 13,-7 23,-14 9,-86 10,-174 -3,-278zm-28837 -1683c24,101 43,189 67,275 24,89 19,184 53,273 63,-7 119,-32 177,-31 13,34 17,62 -16,93 -64,0 -135,-1 -206,1 -24,1 -49,8 -78,13 0,69 -1,133 1,196 1,21 8,41 12,59 85,20 168,-7 252,18 -74,229 -173,437 -303,626 46,97 89,188 135,287 18,-24 33,-39 42,-58 45,-91 88,-182 131,-273 8,-16 11,-37 44,-29 0,200 0,402 0,604 0,4 1,7 3,10 2,3 5,6 7,8 112,16 166,14 248,-9 0,-76 0,-154 0,-232 0,-157 0,-314 1,-472 0,-17 -1,-39 34,-39 27,57 56,118 85,178 7,15 19,27 34,48 60,-78 124,-141 172,-220 -36,-51 -71,-100 -106,-148 -33,-45 -68,-89 -101,-135 -34,-47 -77,-89 -111,-149 78,-18 149,2 221,-17 6,-89 14,-172 -5,-253 -74,-22 -147,8 -220,-24 2,-26 4,-50 6,-81 50,9 93,17 141,25 48,-87 72,-181 100,-273 28,-91 69,-180 75,-281 -76,-18 -143,-51 -218,-37 -25,116 -49,225 -73,334 -2,11 -12,20 -30,46 -3,-53 -5,-86 -6,-119 -1,-109 0,-217 -1,-326 0,-24 -8,-49 -13,-78 -43,0 -81,-1 -118,0 -40,2 -81,-8 -127,12 -6,168 0,335 -9,504 -49,-119 -58,-252 -121,-374 -59,15 -116,30 -180,47zm1673 2081c91,11 172,5 254,-3 29,-3 59,-13 86,-24 69,-27 107,-78 116,-152 2,-19 3,-37 3,-56 0,-296 1,-591 0,-887 0,-21 -8,-41 -13,-66 -129,0 -252,0 -375,0 -123,0 -247,-2 -370,0 -122,2 -244,-9 -364,7 -18,105 -22,541 -12,1106 0,25 4,51 6,77 45,20 86,12 126,12 44,0 89,10 132,-13 25,-118 -11,-239 22,-360 68,0 131,0 195,0 64,0 127,-2 191,1 62,3 126,-13 186,13 5,40 13,77 -10,115 -75,23 -155,-3 -238,19 22,71 43,138 66,213zm597 -1282c5,-78 15,-143 -10,-215 -39,0 -76,0 -113,0 -124,0 -247,1 -371,-1 -25,0 -50,-7 -76,-10 0,-30 0,-54 0,-84 153,-17 302,4 453,-13 11,-66 19,-127 -8,-192 -77,0 -152,2 -226,-1 -73,-3 -148,13 -219,-12 -2,-16 -6,-27 -5,-38 1,-10 5,-21 9,-37 33,-2 66,-5 99,-5 116,-1 232,0 348,-1 21,0 41,-8 63,-13 3,-68 11,-131 -6,-199 -87,-1 -169,0 -251,-3 -85,-3 -171,11 -253,-10 -25,-52 2,-109 -27,-158 -87,-4 -172,-12 -254,6 -24,52 7,109 -29,163 -35,0 -71,0 -108,0 -94,0 -187,-1 -281,1 -21,0 -41,8 -63,13 -4,68 -10,130 5,198 42,1 78,3 115,4 105,1 210,1 314,2 10,0 20,7 35,12 -2,24 -4,48 -7,74 -137,12 -268,-4 -402,10 -12,66 -19,127 7,193 43,0 84,0 124,0 82,1 165,1 247,3 10,0 19,9 32,15 -3,26 -6,50 -9,79 -43,1 -80,3 -117,4 -112,0 -225,0 -337,1 -25,0 -49,7 -76,10 -7,69 -10,131 1,193 15,5 25,10 36,10 449,1 898,1 1360,1zm7692 -41c50,-63 83,-135 121,-203 38,-68 69,-140 115,-210 89,51 138,134 205,192 206,-88 575,-413 661,-582 -90,-44 -182,-81 -277,-115 -160,201 -353,351 -563,466 -107,-20 -198,-56 -295,-64 -8,13 -15,22 -19,33 -50,125 -100,250 -149,375 -6,16 -8,33 -13,53 74,23 139,51 213,55zm928 429c-98,155 -217,278 -354,384 -139,108 -293,191 -459,266 72,87 138,166 207,249 72,-27 136,-66 199,-104 259,-157 482,-353 654,-605 14,-21 23,-44 37,-72 -92,-45 -183,-79 -283,-117zm-691 -1128c-62,-83 -108,-163 -172,-232 -101,20 -196,40 -291,57 -96,17 -191,33 -287,47 -100,15 -200,25 -300,40 -94,15 -191,13 -290,37 27,81 51,154 74,225 220,18 1044,-94 1266,-174zm16472 341c39,109 75,207 108,306 34,103 67,206 98,309 30,99 59,198 89,303 104,-28 197,-60 285,-103 0,-13 2,-21 0,-27 -82,-267 -177,-531 -281,-790 -11,-26 -26,-51 -42,-80 -88,25 -172,41 -258,81zm-15830 112c-68,68 -128,135 -195,194 -64,57 -133,109 -203,158 -73,51 -149,96 -220,141 37,40 69,76 102,111 33,35 66,69 97,102 227,-109 554,-396 672,-557 6,-8 6,-20 10,-33 -85,-49 -177,-79 -263,-116zm-1512 159c-42,-147 -138,-300 -229,-368 -60,29 -126,49 -186,88 69,129 135,252 205,383 67,-33 136,-66 210,-103z"/>
  <path class="fil1" d="M41957 4080c161,153 308,292 454,430 147,139 294,278 440,417 150,142 299,283 449,425 147,139 294,278 440,417 146,139 294,275 441,419 -30,33 -52,57 -74,82 -110,118 -220,235 -330,352 -100,106 -218,180 -367,199 -100,13 -194,-5 -285,-42 -112,-45 -211,-113 -298,-198 -563,-544 -1125,-1089 -1688,-1633 -339,-328 -680,-654 -1020,-982 -38,-36 -77,-72 -110,-112 -137,-166 -163,-353 -77,-547 88,-198 249,-309 468,-311 431,-4 861,-1 1292,-1 112,0 225,1 337,-4 78,-3 157,-12 234,-25 133,-23 246,-88 341,-183 280,-279 310,-720 72,-1037 -62,-82 -142,-144 -233,-191 -115,-58 -236,-94 -366,-97 -37,-1 -75,-1 -112,-1 -715,-1 -1431,-1 -2146,-2 -15,0 -30,2 -50,3 -4,21 -10,41 -11,63 -2,34 -1,67 -1,101 0,1483 0,2966 -1,4449 0,71 -4,143 -19,212 -41,186 -152,316 -336,373 -67,21 -139,36 -209,38 -221,5 -442,2 -663,1 -14,0 -28,-4 -46,-7 -3,-17 -8,-31 -8,-45 -1,-37 -1,-75 -1,-112 0,-1794 0,-3588 0,-5382 0,-101 2,-202 27,-301 73,-297 300,-482 607,-487 240,-4 479,-1 719,-1 700,0 1401,0 2101,0 105,0 210,-8 314,-1 708,46 1231,383 1567,1007 108,200 160,418 181,644 34,349 -34,678 -186,991 -150,308 -378,546 -667,727 -251,156 -524,255 -816,299 -114,17 -229,33 -365,53z"/>
  <path class="fil1" d="M21692 606c-272,-278 -595,-445 -953,-568 61,-31 117,-31 172,-34 682,-37 1276,178 1780,634 283,256 556,524 830,790 827,804 1652,1609 2478,2414 19,18 38,36 56,55 209,220 274,475 180,766 -71,218 -169,424 -295,616 -461,702 -1089,1186 -1894,1431 -417,127 -845,153 -1278,110 -319,-31 -628,-101 -925,-218 -435,-171 -813,-429 -1137,-766 -383,-398 -669,-853 -820,-1387 -101,-356 -137,-719 -110,-1089 26,-365 102,-718 244,-1056 210,-497 536,-906 953,-1244 195,-159 406,-295 631,-407 26,-13 52,-28 88,-48zm3397 3333c-19,0 -23,-1 -26,0 -23,13 -45,26 -68,39 -415,241 -856,307 -1319,183 -903,-243 -1407,-1144 -1226,-1995 51,-238 146,-455 286,-653 13,-19 41,-34 25,-70 -108,12 -211,43 -312,81 -402,149 -724,405 -975,748 -371,506 -486,1078 -398,1692 71,496 308,910 667,1255 231,222 502,374 814,455 194,50 390,69 589,66 235,-3 463,-45 676,-145 678,-317 1104,-841 1262,-1576 5,-25 4,-51 6,-80z"/>
  <path class="fil1" d="M36900 38c-255,89 -490,194 -699,348 -87,64 -171,133 -252,218 28,17 51,34 77,47 349,172 659,399 932,676 452,458 739,1002 855,1636 62,341 79,684 34,1028 -57,448 -204,865 -446,1248 -359,567 -829,1010 -1442,1295 -280,130 -574,214 -879,262 -208,32 -416,46 -626,44 -542,-6 -1051,-139 -1524,-405 -454,-255 -837,-591 -1140,-1015 -162,-227 -290,-472 -382,-735 -90,-256 -54,-494 109,-711 38,-51 85,-94 131,-139 571,-557 1142,-1113 1713,-1670 405,-394 810,-789 1216,-1182 121,-117 244,-233 369,-345 315,-282 676,-479 1090,-576 243,-57 488,-70 736,-54 40,3 80,8 128,31zm-4345 3896c-4,12 -9,19 -8,26 3,26 6,52 12,78 91,442 300,820 626,1132 219,210 466,375 754,474 304,105 615,118 931,73 365,-53 692,-194 965,-443 643,-588 870,-1315 700,-2166 -106,-533 -390,-958 -818,-1289 -231,-179 -488,-304 -775,-364 -24,-5 -48,-5 -87,-8 122,171 219,338 280,524 61,187 91,377 88,574 -3,201 -42,394 -113,581 -69,184 -166,352 -298,499 -70,78 -145,152 -226,218 -78,63 -163,120 -251,168 -92,50 -188,93 -287,126 -99,33 -202,55 -306,70 -103,15 -208,27 -313,14 -100,-13 -202,-20 -299,-44 -101,-24 -201,-59 -297,-100 -95,-40 -185,-93 -278,-141z"/>
  <path class="fil2" d="M1286 4075c-2,37 -4,59 -4,81 0,330 0,659 0,989 0,64 6,127 26,188 59,175 182,269 365,285 37,3 75,2 112,2 989,1 1977,1 2966,2 67,0 134,2 200,18 237,59 387,223 401,467 11,194 2,388 2,590 -23,4 -44,9 -65,10 -22,2 -45,0 -67,0 -1314,0 -2629,0 -3943,0 -139,0 -277,-1 -414,-29 -159,-33 -310,-85 -446,-176 -260,-175 -399,-419 -417,-732 -2,-37 -2,-75 -2,-112 0,-1419 0,-2838 0,-4257 0,-113 4,-225 37,-334 77,-258 240,-445 477,-569 134,-70 277,-114 427,-132 104,-13 209,-20 313,-20 1326,-1 2651,-1 3977,-1 37,0 74,0 117,0 4,28 9,49 9,70 1,157 4,315 2,472 -1,52 -8,105 -21,155 -66,250 -246,391 -504,401 -41,2 -82,1 -124,1 -962,-1 -1925,-2 -2887,-3 -45,0 -90,-1 -135,1 -218,9 -372,150 -401,367 -4,30 -5,60 -5,90 0,333 0,667 0,1000 0,26 3,51 5,76 42,24 84,14 124,14 419,1 839,1 1258,1 573,0 1146,1 1719,-1 128,-1 245,29 349,102 136,94 221,222 237,389 25,258 -145,501 -394,571 -69,19 -139,24 -211,24 -985,-1 -1970,0 -2954,0 -40,0 -81,2 -130,3z"/>
  <path class="fil3" d="M19178 5166c-493,797 -1191,1311 -2101,1536 -333,82 -673,106 -1015,84 -826,-54 -1533,-376 -2121,-958 -326,-323 -583,-692 -750,-1121 -111,-285 -174,-579 -201,-884 -23,-263 -14,-523 23,-784 71,-495 251,-947 546,-1350 400,-548 909,-960 1548,-1202 303,-114 617,-176 941,-198 560,-39 1097,50 1610,277 635,281 1135,718 1497,1311 6,10 11,19 16,29 1,3 0,7 0,11 -1,3 -2,8 -4,10 -146,117 -285,244 -440,348 -229,156 -471,152 -708,9 -78,-47 -140,-111 -201,-178 -88,-97 -175,-196 -273,-282 -283,-250 -617,-389 -992,-432 -222,-25 -440,-18 -659,23 -258,49 -495,149 -706,303 -453,330 -761,761 -876,1314 -180,867 87,1745 865,2312 305,222 650,334 1027,347 268,9 530,-20 784,-113 243,-89 456,-224 640,-406 69,-69 134,-142 198,-215 65,-74 135,-140 222,-188 235,-130 470,-122 689,30 150,104 288,227 431,342 3,2 3,7 11,23z"/>
  <path class="fil2" d="M5946 362c65,0 117,0 169,0 150,0 300,1 449,0 68,-1 134,8 200,26 197,57 333,181 405,372 30,81 49,165 52,252 2,60 3,120 3,180 0,1299 0,2599 1,3898 0,48 0,98 11,145 40,174 186,297 378,319 178,20 357,35 536,52 314,30 628,34 942,17 220,-12 440,-36 660,-56 112,-10 224,-21 336,1 250,50 422,236 436,489 10,190 2,381 2,577 -22,7 -42,17 -63,20 -475,65 -952,111 -1431,131 -337,14 -674,17 -1010,-8 -235,-17 -471,-31 -705,-55 -193,-19 -386,-49 -579,-76 -67,-9 -134,-17 -199,-33 -367,-88 -596,-376 -596,-756 -1,-1048 0,-2097 0,-3145 0,-738 0,-1475 0,-2213 0,-41 2,-81 3,-136z"/>
  <path class="fil1" d="M31347 6637c-26,6 -51,14 -76,18 -341,48 -683,84 -1027,107 -467,32 -935,46 -1403,13 -235,-17 -471,-31 -705,-54 -190,-19 -378,-48 -567,-74 -70,-10 -141,-18 -210,-36 -307,-78 -502,-269 -574,-581 -9,-40 -12,-81 -15,-122 -3,-37 -1,-75 -1,-112 0,-1764 0,-3527 0,-5291 0,-44 2,-88 4,-139 32,-2 57,-4 82,-4 180,0 359,1 539,-1 76,-1 149,11 221,35 241,81 371,257 414,500 15,84 20,171 20,257 1,1299 1,2598 1,3898 0,30 0,60 0,90 2,177 97,317 262,380 38,15 78,27 119,32 514,64 1029,99 1546,67 202,-12 402,-36 604,-54 123,-11 246,-21 368,10 151,38 262,125 333,262 43,84 70,174 71,269 2,161 1,322 0,483 0,14 -4,29 -7,47z"/>
  <path class="fil2" d="M12384 6693c-24,2 -45,5 -67,5 -206,0 -412,2 -618,-1 -67,-1 -135,-10 -199,-27 -258,-70 -368,-265 -387,-493 -3,-34 -1,-67 -1,-101 0,-1861 0,-3722 0,-5582 0,-37 0,-74 0,-117 25,-5 46,-12 66,-12 195,-1 389,-3 584,0 306,5 536,192 604,489 15,65 21,133 26,200 4,67 2,135 2,202 0,1767 0,3534 0,5302 0,44 6,89 -9,138z"/>
  <path class="fil4" d="M46872 5548c6,-199 25,-397 96,-584 167,-439 485,-677 953,-715 154,-12 307,-7 456,36 347,100 585,321 714,658 85,224 111,457 100,695 -7,157 -29,313 -80,463 -133,394 -401,641 -810,726 -208,43 -418,37 -622,-20 -322,-91 -550,-293 -683,-601 -91,-210 -118,-431 -124,-657zm1813 -1c5,-138 -11,-278 -47,-417 -23,-87 -57,-170 -106,-246 -74,-115 -178,-190 -310,-225 -80,-21 -162,-28 -245,-22 -224,17 -390,119 -484,327 -26,58 -50,118 -64,179 -59,243 -61,489 -18,735 20,114 57,224 117,325 75,125 182,207 323,241 122,29 245,29 367,-1 137,-34 242,-113 317,-233 48,-77 81,-160 104,-247 35,-135 50,-272 46,-416z"/>
  <path class="fil5" d="M27272 7163c101,32 191,68 284,88 216,46 433,86 650,124 232,41 467,67 702,81 45,3 90,6 135,6 322,5 643,-19 963,-57 245,-29 489,-66 731,-115 22,-4 44,-5 76,-8 -9,20 -13,33 -21,42 -336,389 -699,751 -1120,1049 -171,121 -350,230 -546,308 -149,60 -150,60 -296,-11 -210,-102 -399,-236 -577,-386 -298,-253 -557,-543 -794,-853 -55,-71 -106,-145 -159,-218 -10,-14 -17,-30 -29,-51z"/>
  <path class="fil4" d="M51518 4368c0,129 -43,243 -91,363 -34,-8 -63,-13 -90,-22 -180,-57 -363,-90 -552,-79 -76,5 -147,22 -219,46 -221,74 -204,333 -88,439 51,46 107,81 171,104 105,38 212,74 317,112 84,31 169,61 250,98 287,129 405,389 378,687 -24,272 -167,466 -405,595 -116,63 -241,103 -372,120 -308,41 -612,15 -909,-79 -17,-5 -34,-12 -57,-20 6,-140 55,-263 109,-390 38,13 69,24 101,34 176,55 356,84 542,78 83,-3 163,-18 242,-45 61,-21 114,-54 163,-96 153,-131 148,-387 -34,-502 -63,-40 -133,-69 -202,-96 -104,-41 -211,-75 -316,-116 -108,-42 -212,-94 -308,-160 -144,-101 -222,-237 -236,-413 -27,-333 136,-593 449,-710 153,-57 313,-71 475,-72 211,-1 417,35 618,98 21,6 40,17 63,27z"/>
  <path class="fil6" d="M45528 378c14,118 19,6185 8,6445 -43,19 -58,14 -60,-21 -2,-30 -1,-60 -1,-90 0,-2063 0,-4127 0,-6191 0,-37 -1,-75 5,-112 2,-11 25,-18 47,-32z"/>
  <path class="fil7" d="M46964 11937c51,-6 98,-12 152,-19 6,19 14,35 15,52 5,59 8,119 11,179 -49,52 -126,19 -185,69 0,37 -2,81 -1,125 0,40 2,79 4,121 253,-94 494,-417 527,-704 -133,-16 -268,2 -406,-11 -25,-84 -12,-167 -10,-258 77,-11 147,-5 217,-6 71,-1 142,0 210,0 25,-73 29,-185 12,-329 -41,-17 -86,-8 -129,-9 -41,-1 -82,0 -124,0 -44,-1 -88,-2 -134,-3 -17,-46 -10,-87 -11,-127 -1,-41 2,-81 3,-124 81,-29 161,-1 243,-21 -4,-20 -4,-43 -14,-60 -35,-62 -73,-122 -111,-182 -20,-32 -43,-61 -68,-98 18,-14 34,-29 52,-38 53,-27 107,-52 159,-76 94,73 196,215 252,351 -48,29 -97,59 -147,89 8,9 12,18 16,18 71,1 142,1 211,1 90,-145 150,-298 212,-445 59,-14 103,12 150,21 44,9 86,22 137,36 -7,23 -11,45 -20,63 -44,83 -90,164 -135,246 -12,22 -33,41 -26,78 79,2 159,4 245,6 19,85 9,166 7,252 -22,4 -43,11 -64,12 -97,1 -195,0 -292,1 -29,0 -58,3 -91,5 -16,56 -8,108 -9,159 -1,52 0,104 0,160 28,5 49,13 70,13 116,1 232,0 348,1 33,0 66,2 102,4 16,44 9,85 10,125 1,41 0,82 0,127 -94,22 -184,9 -272,12 -86,2 -172,0 -266,0 4,24 3,42 9,57 100,257 260,462 513,584 10,5 19,12 28,18 3,2 5,5 12,11 -59,75 -119,151 -182,232 -19,-8 -40,-14 -59,-24 -159,-92 -284,-218 -383,-372 -22,-34 -44,-67 -71,-108 -37,58 -67,110 -101,157 -37,51 -77,101 -120,148 -41,44 -85,85 -131,123 -45,38 -95,71 -146,109 -77,-59 -129,-140 -223,-184 -4,57 -7,104 -10,154 -81,13 -157,15 -239,-3 -10,-132 1,-263 -7,-392 -33,-19 -62,-8 -90,-3 -144,26 -287,52 -431,78 -18,3 -37,3 -59,5 -38,-81 -41,-167 -63,-257 41,-11 79,-21 123,-32 3,-17 8,-34 8,-52 0,-408 0,-816 0,-1225 0,-11 -3,-22 -6,-40 -29,-7 -60,-14 -94,-21 -11,-81 -6,-158 -3,-233 86,-17 792,-21 942,-7 24,75 8,153 11,237 -25,7 -48,14 -78,22 -3,15 -10,32 -10,50 -1,363 -1,727 0,1090 0,18 5,36 8,61zm-260 -206c-82,-19 -161,-17 -248,-1 0,95 -4,187 4,290 86,-20 167,-12 244,-50 0,-79 0,-157 0,-239zm-1 -1001c-88,-5 -161,-7 -243,0 -4,86 -11,165 4,251 32,3 60,7 89,7 47,0 95,5 151,-8 5,-83 8,-162 -1,-250zm-241 750c43,2 80,5 116,4 40,-1 81,7 125,-11 9,-60 4,-119 5,-178 0,-21 -4,-43 -7,-71 -82,-3 -158,-10 -238,5 -11,85 -10,165 -1,251z"/>
  <path class="fil7" d="M37311 10483c133,-15 1993,-12 2084,2 12,41 6,86 7,130 1,40 -2,81 -3,121 -40,24 -78,15 -114,15 -330,1 -659,0 -989,0 -41,0 -82,0 -122,0 -41,45 -35,101 -48,151 -13,50 -17,102 -27,159 27,5 48,11 69,11 195,1 390,6 584,-2 102,-4 201,0 307,21 2,23 8,48 5,73 -17,145 -33,290 -54,434 -31,218 -66,436 -99,655 -3,18 0,37 0,58 95,16 188,5 281,8 89,2 178,-2 271,3 16,49 9,94 10,138 1,44 -1,89 -1,130 -45,28 -87,17 -127,17 -614,1 -1228,1 -1842,1 -82,0 -164,0 -251,0 -33,-95 -11,-186 -14,-280 120,-15 232,-6 343,-8 112,-2 225,0 337,0 109,0 217,0 326,0 112,0 224,0 333,0 35,-83 52,-178 58,-307 -28,-3 -56,-8 -84,-8 -292,-1 -584,0 -876,-1 -37,0 -74,6 -117,-12 34,-136 68,-269 100,-403 33,-138 66,-277 95,-416 28,-135 57,-270 79,-412 -29,-4 -50,-10 -71,-10 -112,-1 -225,0 -337,-1 -33,0 -66,-3 -102,-4 -18,-47 -10,-92 -11,-135 -1,-41 0,-81 0,-128zm1422 879c-18,-5 -31,-12 -45,-13 -135,-9 -575,-2 -653,11 -14,58 -33,119 -43,180 -10,60 -44,119 -23,191 80,0 157,1 235,1 82,0 164,1 246,0 77,-1 154,7 235,-7 13,-83 25,-160 36,-237 6,-40 8,-81 12,-125z"/>
  <path class="fil7" d="M30578 12259c13,104 12,192 3,278 -11,6 -17,14 -23,14 -708,2 -1415,3 -2123,4 -14,0 -28,-5 -41,-7 -20,-100 -19,-199 3,-283 65,-11 132,-4 198,-5 71,-1 142,1 213,-1 66,-1 133,5 205,-7 8,-80 4,-154 4,-229 1,-79 -1,-157 -1,-236 0,-75 1,-150 1,-225 0,-79 0,-157 0,-236 0,-75 0,-150 0,-225 0,-75 0,-150 0,-225 0,-79 -1,-157 0,-236 1,-74 -4,-148 4,-229 99,-6 191,-5 286,-1 15,46 10,87 10,127 0,528 0,1056 0,1584 0,41 2,81 4,126 105,22 205,6 299,10 35,-38 23,-78 23,-113 1,-397 1,-794 1,-1191 0,-139 0,-277 0,-416 0,-37 0,-75 0,-110 75,-26 174,-28 288,-8 3,3 6,5 7,8 2,3 2,7 2,11 1,11 2,22 2,34 0,412 0,824 0,1236 34,6 37,-21 46,-40 105,-211 195,-429 270,-653 12,-35 25,-69 39,-107 51,4 87,33 127,50 41,18 80,40 125,62 -4,23 -3,46 -10,65 -96,256 -203,507 -328,750 -12,23 -27,43 -43,66 -78,-11 -134,-72 -208,-82 -21,84 -24,306 -5,430 23,3 48,8 73,8 142,1 285,0 427,0 37,0 74,0 122,0z"/>
  <path class="fil7" d="M21177 10948c56,20 112,39 177,61 -11,22 -18,42 -30,59 -38,56 -78,110 -116,166 -10,14 -16,31 -30,56 170,10 330,-1 494,8 18,95 13,183 4,276 -115,12 -227,5 -338,6 -112,1 -225,0 -337,0 -116,0 -232,0 -348,0 -112,0 -225,0 -337,0 -112,1 -223,-3 -337,2 -20,45 -13,87 -13,127 -2,215 -30,426 -94,631 -38,122 -86,239 -173,342 -53,-20 -81,-67 -122,-97 -42,-31 -80,-66 -117,-98 4,-13 4,-22 8,-27 130,-198 177,-419 184,-651 4,-127 3,-255 4,-382 0,-37 0,-74 0,-116 26,-6 47,-15 67,-16 105,-2 210,-1 315,-1 33,0 66,-3 108,-4 -8,-28 -9,-50 -19,-68 -39,-72 -81,-143 -123,-215 35,-50 103,-44 141,-88 -17,-24 -40,-11 -60,-13 -26,-2 -52,-1 -79,-1 -22,0 -45,0 -67,0 -26,0 -52,0 -79,0 -22,0 -45,0 -67,0 -26,0 -52,1 -79,0 -22,-1 -44,-4 -72,-7 -1,-40 -4,-77 -4,-113 1,-48 -7,-97 10,-148 90,-15 179,-5 268,-7 94,-2 187,0 281,0 89,0 179,0 273,0 -2,-77 -66,-122 -81,-195 95,-24 188,-47 283,-70 76,75 113,171 167,262 257,6 514,-1 776,4 22,88 10,173 9,263 -27,4 -52,10 -76,10 -124,2 -247,2 -371,3 -36,-2 -72,-3 -134,-6 43,19 61,28 80,34 17,5 35,7 52,10zm-732 257c-27,52 -94,37 -118,86 125,12 437,11 524,-2 85,-121 158,-283 166,-372 -3,-2 -5,-6 -8,-6 -22,-2 -44,-5 -67,-5 -213,0 -427,1 -640,2 -4,0 -8,1 -10,3 -3,2 -3,7 -8,18 27,42 59,87 87,134 28,47 65,90 75,142z"/>
  <path class="fil7" d="M1741 10575c64,-17 121,-31 180,-47 63,122 72,254 121,374 9,-168 3,-335 9,-504 45,-20 87,-10 127,-12 37,-2 74,0 118,0 5,29 13,54 13,78 1,109 0,217 1,326 0,33 3,66 6,119 17,-26 27,-35 30,-46 25,-109 48,-219 73,-334 74,-14 142,18 218,37 -6,101 -47,190 -75,281 -29,92 -52,186 -100,273 -47,-8 -91,-16 -141,-25 -2,30 -4,54 -6,81 73,32 146,2 220,24 19,81 11,165 5,253 -72,19 -143,-1 -221,17 34,61 77,102 111,149 33,45 68,90 101,135 35,48 70,97 106,148 -47,80 -112,142 -172,220 -15,-20 -27,-33 -34,-48 -30,-60 -58,-120 -85,-178 -35,0 -34,22 -34,39 -1,157 -1,314 -1,472 0,78 0,156 0,232 -82,23 -135,24 -248,9 -2,-2 -5,-5 -7,-8 -2,-3 -3,-7 -3,-10 0,-202 0,-403 0,-604 -33,-8 -36,13 -44,29 -43,91 -86,182 -131,273 -9,19 -25,34 -42,58 -47,-99 -89,-190 -135,-287 130,-189 229,-397 303,-626 -84,-25 -167,1 -252,-18 -4,-18 -11,-38 -12,-59 -2,-63 -1,-127 -1,-196 29,-5 53,-13 78,-13 71,-2 142,-1 206,-1 33,-31 29,-59 16,-93 -59,-1 -114,24 -177,31 -33,-88 -28,-184 -53,-273 -24,-86 -42,-174 -67,-275z"/>
  <path class="fil7" d="M3414 12657c-23,-75 -44,-142 -66,-213 84,-21 163,4 238,-19 23,-38 15,-74 10,-115 -60,-26 -124,-10 -186,-13 -63,-3 -127,-1 -191,-1 -63,0 -126,0 -195,0 -33,121 2,242 -22,360 -43,24 -89,13 -132,13 -40,0 -82,8 -126,-12 -2,-26 -6,-51 -6,-77 -10,-564 -5,-1000 12,-1106 120,-15 242,-5 364,-7 123,-2 247,0 370,0 123,0 246,0 375,0 5,25 13,45 13,66 1,296 1,591 0,887 0,19 -1,37 -3,56 -9,73 -47,125 -116,152 -28,11 -57,20 -86,24 -82,9 -164,14 -254,3zm-403 -856c73,0 136,0 198,0 67,0 134,2 201,-1 62,-3 126,13 186,-13 0,-36 0,-68 0,-103 -67,-20 -130,-9 -193,-11 -67,-2 -134,-2 -201,0 -62,2 -125,-9 -192,10 0,37 0,69 0,117zm1 303c191,16 505,11 582,-8 9,-55 8,-55 -11,-112 -60,0 -123,0 -186,0 -67,0 -134,-2 -201,1 -62,3 -125,-14 -191,15 3,34 5,66 8,104z"/>
  <path class="fil7" d="M11256 11239c0,17 8,30 24,32 26,4 52,3 78,5 26,2 51,6 81,9 3,66 6,129 9,197 148,20 293,-2 442,14 3,22 7,40 7,58 -1,63 5,126 -5,192 -50,18 -98,9 -146,10 -48,1 -96,0 -153,0 16,44 49,58 70,80 21,22 43,41 65,62 24,24 48,48 70,73 20,22 40,45 58,69 20,26 39,53 59,81 -62,68 -119,132 -191,187 -44,-55 -84,-109 -127,-160 -41,-48 -86,-93 -127,-137 -32,9 -26,31 -26,48 0,157 0,315 -1,472 0,37 -2,74 -4,114 -46,19 -92,10 -135,11 -44,1 -89,-1 -137,-2 -21,-94 -9,-184 -11,-272 -2,-85 1,-169 -2,-269 -55,35 -77,80 -109,113 -31,32 -61,66 -92,99 -34,35 -69,69 -105,102 -33,30 -68,57 -107,89 -59,-86 -113,-165 -172,-251 19,-16 36,-34 56,-48 147,-106 272,-235 381,-379 15,-20 25,-42 43,-72 -49,-15 -90,-8 -129,-10 -45,-1 -90,0 -135,0 -41,0 -82,0 -128,0 -25,-88 -15,-171 -8,-260 169,-16 333,2 502,-12 3,-68 6,-130 9,-187 28,-34 82,-13 96,-59 0,0 0,-1 0,-1z"/>
  <path class="fil7" d="M4012 11374c-462,0 -911,0 -1360,0 -10,0 -21,-6 -36,-10 -11,-62 -9,-125 -1,-193 26,-4 51,-10 76,-10 112,-1 225,0 337,-1 37,0 74,-2 117,-4 3,-29 6,-54 9,-79 -13,-6 -22,-15 -32,-15 -82,-2 -165,-2 -247,-3 -41,0 -82,0 -124,0 -27,-66 -19,-127 -7,-193 134,-15 264,2 402,-10 2,-26 5,-50 7,-74 -14,-5 -25,-12 -35,-12 -105,-1 -210,-1 -314,-2 -37,0 -73,-2 -115,-4 -15,-67 -9,-130 -5,-198 22,-5 43,-12 63,-13 94,-1 187,-1 281,-1 37,0 74,0 108,0 36,-54 5,-111 29,-163 82,-17 167,-9 254,-6 29,49 2,106 27,158 82,21 168,7 253,10 82,3 163,2 251,3 17,69 9,131 6,199 -21,5 -42,13 -63,13 -116,1 -232,0 -348,1 -33,0 -66,3 -99,5 -4,16 -9,27 -9,37 -1,11 3,22 5,38 71,26 146,10 219,12 75,3 149,1 226,1 27,66 18,126 8,192 -151,16 -300,-4 -453,13 0,29 0,54 0,84 26,4 51,10 76,10 123,1 247,1 371,1 37,0 74,0 113,0 25,72 15,137 10,215z"/>
  <path class="fil7" d="M11704 11333c-75,-4 -139,-32 -213,-55 5,-20 7,-38 13,-53 49,-125 99,-250 149,-375 4,-10 11,-19 19,-33 96,8 187,44 295,64 210,-115 403,-265 563,-466 95,33 187,71 277,115 -86,169 -456,495 -661,582 -67,-58 -116,-141 -205,-192 -46,70 -77,142 -115,210 -38,68 -71,139 -121,203z"/>
  <path class="fil7" d="M12632 11762c101,39 191,72 283,117 -14,28 -23,52 -37,72 -171,252 -394,448 -654,605 -64,38 -127,78 -199,104 -69,-83 -135,-162 -207,-249 166,-75 320,-158 459,-266 137,-106 256,-229 354,-384z"/>
  <path class="fil7" d="M11942 10634c-222,79 -1046,191 -1266,174 -23,-71 -47,-144 -74,-225 99,-23 196,-22 290,-37 100,-16 200,-26 300,-40 96,-14 192,-30 287,-47 95,-17 190,-37 291,-57 64,69 110,149 172,232z"/>
  <path class="fil7" d="M28413 10975c87,-40 170,-57 258,-81 15,29 31,53 42,80 104,259 199,523 281,790 2,7 0,15 0,27 -88,43 -182,74 -285,103 -31,-105 -59,-204 -89,-303 -32,-103 -64,-207 -98,-309 -33,-99 -69,-197 -108,-306z"/>
  <path class="fil7" d="M12583 11087c87,37 178,67 263,116 -4,13 -4,25 -10,33 -118,162 -445,448 -672,557 -31,-33 -64,-67 -97,-102 -33,-35 -65,-71 -102,-111 70,-45 147,-90 220,-141 70,-49 139,-101 203,-158 67,-59 127,-125 195,-194z"/>
  <path class="fil7" d="M11072 11246c-74,36 -143,70 -210,103 -70,-131 -136,-254 -205,-383 60,-39 127,-60 186,-88 91,68 187,222 229,368z"/>
  <path class="fil7" d="M11256 11239c0,0 0,1 0,1 -10,-10 -24,-18 -29,-31 -43,-107 -84,-214 -129,-328 60,-37 135,-53 207,-69 78,97 139,226 164,346 -64,42 -139,61 -213,80z"/>
  <path class="fil8" d="M21177 10948c-18,-3 -36,-5 -52,-10 -19,-6 -37,-16 -80,-34 62,3 98,4 134,6 0,13 -1,26 -1,39z"/>
  <path class="fil7" d="M25089 3939c-2,29 -1,55 -6,80 -158,735 -584,1259 -1262,1576 -212,99 -440,142 -676,145 -199,3 -396,-16 -589,-66 -311,-80 -583,-232 -814,-455 -359,-345 -596,-759 -667,-1255 -88,-614 27,-1186 398,-1692 251,-342 573,-599 975,-748 101,-38 205,-69 312,-81 17,36 -12,51 -25,70 -140,198 -236,415 -286,653 -181,851 323,1752 1226,1995 463,125 905,58 1319,-183 23,-13 45,-27 68,-39 3,-2 7,0 26,0z"/>
  <path class="fil7" d="M32556 3934c93,48 183,101 278,141 96,41 196,76 297,100 98,23 199,31 299,44 105,14 210,1 313,-14 103,-15 207,-37 306,-70 99,-33 196,-76 287,-126 88,-48 173,-105 251,-168 81,-66 156,-140 226,-218 131,-146 228,-315 298,-499 71,-187 110,-380 113,-581 3,-197 -27,-387 -88,-574 -61,-186 -159,-353 -280,-524 39,3 64,3 87,8 287,60 544,185 775,364 427,331 711,756 818,1289 170,851 -57,1578 -700,2166 -273,249 -599,390 -965,443 -316,46 -627,32 -931,-73 -288,-99 -535,-265 -754,-474 -326,-312 -534,-690 -626,-1132 -5,-26 -9,-52 -12,-78 -1,-7 4,-14 8,-26z"/>
  <path class="fil7" d="M48685 5547c4,144 -11,281 -46,416 -23,87 -56,170 -104,247 -75,120 -180,199 -317,233 -122,30 -245,30 -367,1 -141,-34 -249,-116 -323,-241 -60,-101 -97,-211 -117,-325 -43,-246 -41,-491 18,-735 15,-61 38,-121 64,-179 94,-208 260,-310 484,-327 83,-6 165,1 245,22 132,35 235,110 310,225 49,76 83,159 106,246 37,138 52,279 47,417z"/>
  <path class="fil9" d="M46704 11731c0,82 0,159 0,239 -77,39 -158,30 -244,50 -8,-103 -3,-195 -4,-290 87,-16 166,-19 248,1z"/>
  <path class="fil10" d="M46702 10731c9,88 6,167 1,250 -55,13 -103,8 -151,8 -29,0 -58,-4 -89,-7 -15,-85 -8,-164 -4,-251 82,-7 155,-6 243,0z"/>
  <path class="fil9" d="M46461 11481c-9,-86 -10,-166 1,-251 80,-14 156,-8 238,-5 3,29 7,50 7,71 0,59 4,118 -5,178 -44,18 -85,10 -125,11 -36,1 -73,-3 -116,-4z"/>
  <path class="fil11" d="M38733 11363c-4,44 -6,85 -12,125 -11,77 -23,154 -36,237 -81,14 -159,6 -235,7 -82,1 -164,0 -246,0 -78,0 -156,-1 -235,-1 -21,-72 13,-131 23,-191 10,-62 29,-122 43,-180 78,-12 518,-19 653,-11 14,1 27,8 45,13z"/>
  <path class="fil9" d="M20445 11206c-9,-52 -47,-95 -75,-142 -28,-47 -60,-93 -87,-134 5,-12 6,-16 8,-18 2,-2 7,-3 10,-3 213,-1 427,-2 640,-2 22,0 45,3 67,5 3,0 5,4 8,6 -8,89 -80,252 -166,372 -87,13 -399,14 -524,2 24,-49 91,-34 118,-86z"/>
  <path class="fil12" d="M3011 11801c0,-48 0,-80 0,-117 67,-19 130,-8 192,-10 67,-2 134,-2 201,0 62,2 126,-10 193,11 0,34 0,67 0,103 -61,26 -125,10 -186,13 -67,3 -134,1 -201,1 -63,0 -126,0 -198,0z"/>
  <path class="fil12" d="M3012 12104c-3,-38 -5,-70 -8,-104 66,-29 130,-12 191,-15 67,-3 134,-1 201,-1 63,0 126,0 186,0 19,57 20,57 11,112 -76,18 -391,23 -582,8z"/>
 </g>
</svg>
